# This file uses centimeters as units for non-parametric coordinates.

mtllib Drawer With Plates.mtl
g default
v 78.422165 42.073376 -8.605207
v 78.422157 21.380163 -9.594418
v 78.422157 42.073376 -24.089195
v 78.422157 21.380163 -24.086109
v 78.185631 21.539267 -23.934954
v 78.185638 41.914272 -23.938036
v 78.185638 21.539267 -9.774771
v 78.185631 41.914272 -8.785561
v 78.152878 21.867937 -23.537230
v 78.152878 41.585598 -23.525846
v 78.152878 21.867937 -10.183189
v 78.152878 41.585598 -9.224144
v 88.130547 21.867937 -23.537228
v 88.130547 41.585598 -23.525845
v 88.130547 21.867937 -10.183189
v 88.130547 41.585598 -9.224144
v 88.886780 42.073376 -8.605207
v 88.886780 21.380163 -9.594418
v 88.886772 42.073376 -24.089195
v 88.886780 21.380163 -24.086109
v 88.886780 31.494490 -24.087616
v 78.422157 31.494490 -24.087616
v 78.185631 31.498060 -23.936460
v 78.152878 31.505438 -23.531664
v 88.130547 31.505438 -23.531666
v 88.130547 31.505438 -9.714432
v 78.152878 31.505438 -9.714432
v 78.185631 31.498060 -9.291269
v 78.422165 31.494490 -9.110916
v 88.886780 31.494490 -9.110916
v 88.886780 31.950174 -24.087704
v 78.422157 31.950174 -24.087704
v 78.185638 31.944756 -23.936548
v 78.152878 31.933565 -23.531343
v 88.130547 31.933565 -23.531342
v 88.130547 31.933565 -9.687340
v 78.152878 31.933565 -9.687340
v 78.185638 31.944756 -9.263327
v 78.422157 31.950174 -9.082972
v 88.886780 31.950174 -9.082972
vt 0.011806 0.010730
vt 0.004681 0.004842
vt 0.258349 0.004842
vt 0.251033 0.010730
vt 0.011905 0.183378
vt 0.004654 0.183246
vt 0.001973 0.001992
vt 0.261580 0.001992
vt 0.267011 0.183246
vt 0.259430 0.183378
vt 0.011911 0.191048
vt 0.004652 0.191248
vt 0.001946 0.183182
vt 0.270242 0.183182
vt 0.267511 0.191248
vt 0.259916 0.191048
vt 0.012009 0.363957
vt 0.004625 0.369845
vt 0.001944 0.191346
vt 0.270742 0.191346
vt 0.276070 0.369845
vt 0.268213 0.363957
vt 0.001918 0.372695
vt 0.279301 0.372695
vt 0.594407 0.632839
vt 0.594407 0.384835
vt 0.767315 0.376537
vt 0.767315 0.632741
vt 0.046556 0.624161
vt 0.046556 0.384934
vt 0.219205 0.376537
vt 0.219205 0.624062
vt 0.366578 0.628384
vt 0.366578 0.867611
vt 0.187836 0.867611
vt 0.187836 0.628384
vt 0.588501 0.376537
vt 0.588501 0.632741
vt 0.409759 0.632741
vt 0.409759 0.376537
vt 0.675614 0.279376
vt 0.675614 0.001992
vt 0.863080 0.001992
vt 0.863079 0.279376
vt 0.773221 0.542825
vt 0.773221 0.283218
vt 0.960687 0.283218
vt 0.960687 0.542825
vt 0.225111 0.624541
vt 0.225111 0.376537
vt 0.403853 0.376537
vt 0.403853 0.624541
vt 0.180660 0.628004
vt 0.180660 0.875528
vt 0.001918 0.875528
vt 0.001918 0.628004
vt 0.373567 0.815325
vt 0.373567 0.636583
vt 0.546475 0.636583
vt 0.546475 0.815325
vt 0.553670 0.815424
vt 0.553670 0.636681
vt 0.726578 0.636681
vt 0.726578 0.815424
vt 0.285392 0.372695
vt 0.285392 0.191346
vt 0.472857 0.191346
vt 0.472857 0.372695
vt 0.285392 0.183182
vt 0.472857 0.183182
vt 0.285392 0.001992
vt 0.472857 0.001992
vt 0.480503 0.183341
vt 0.480503 0.001992
vt 0.667968 0.001992
vt 0.667968 0.183341
vt 0.480503 0.191504
vt 0.667968 0.191504
vt 0.480503 0.372695
vt 0.667968 0.372695
vt 0.733772 0.815424
vt 0.733772 0.636681
vt 0.906421 0.636681
vt 0.906421 0.815424
vt 0.788038 0.998008
vt 0.788038 0.819266
vt 0.960687 0.819266
vt 0.960687 0.998008
vn -0.679948 -0.514529 -0.522429
vn -0.679948 -0.514529 -0.522429
vn -0.707095 -0.523389 0.475478
vn -0.707095 -0.523389 0.475478
vn -0.538489 -0.000145 -0.842632
vn -0.538489 -0.000145 -0.842632
vn -0.679975 0.514425 -0.522495
vn -0.679975 0.514425 -0.522495
vn -0.716176 0.490612 0.496379
vn -0.716176 0.490612 0.496379
vn -0.601514 -0.043647 0.797669
vn -0.601514 -0.043647 0.797669
vn -0.997933 -0.049685 -0.040765
vn -0.997933 -0.049685 -0.040765
vn -0.997924 -0.051560 0.038590
vn -0.997924 -0.051560 0.038590
vn -0.996774 0.000027 -0.080256
vn -0.996774 0.000027 -0.080256
vn -0.997962 0.049700 -0.040029
vn -0.997962 0.049700 -0.040029
vn -0.998106 0.047838 0.038670
vn -0.998106 0.047838 0.038670
vn -0.997010 -0.004272 0.077151
vn -0.997010 -0.004272 0.077151
vn 0.000000 1.000000 0.000000
vn 0.000000 1.000000 0.000000
vn 0.000000 1.000000 0.000000
vn 0.000000 1.000000 0.000000
vn -0.000000 -0.000570 1.000000
vn -0.000000 -0.000570 1.000000
vn -0.000000 -0.000570 1.000000
vn -0.000000 -0.000570 1.000000
vn 0.000000 -1.000000 0.000000
vn 0.000000 -1.000000 0.000000
vn 0.000000 -1.000000 0.000000
vn 0.000000 -1.000000 0.000000
vn 0.000000 0.047934 -0.998851
vn 0.000000 0.047934 -0.998851
vn 0.000000 0.047934 -0.998851
vn 0.000000 0.047934 -0.998851
vn -1.000000 0.000001 0.000000
vn -1.000000 0.000001 0.000000
vn -1.000000 0.000001 0.000000
vn -1.000000 0.000001 0.000000
vn 0.000000 -0.047142 0.998888
vn 0.000000 -0.054177 0.998531
vn 0.000000 -0.054177 0.998531
vn 0.000000 -0.047142 0.998888
vn 0.000000 1.000000 0.000000
vn 0.000000 1.000000 0.000000
vn 0.000000 1.000000 0.000000
vn 0.000000 1.000000 0.000000
vn 0.000000 -0.000170 -1.000000
vn 0.000000 -0.000147 -1.000000
vn 0.000000 -0.000147 -1.000000
vn 0.000000 -0.000170 -1.000000
vn 0.000000 -1.000000 0.000000
vn 0.000000 -1.000000 0.000000
vn 0.000000 -1.000000 0.000000
vn 0.000000 -1.000000 0.000000
vn 0.000000 -0.000149 -1.000000
vn 0.000000 -0.000171 -1.000000
vn 0.000000 -0.000171 -1.000000
vn 0.000000 -0.000149 -1.000000
vn -0.538512 -0.000146 -0.842618
vn -0.538512 -0.000146 -0.842618
vn -0.996715 0.000027 -0.080989
vn -0.996715 0.000027 -0.080989
vn 0.000000 -0.000577 1.000000
vn 0.000000 -0.000577 1.000000
vn 0.000000 -0.000577 1.000000
vn 0.000000 -0.000577 1.000000
vn -1.000000 -0.000001 0.000000
vn -1.000000 -0.000001 0.000000
vn -1.000000 -0.000001 0.000000
vn -1.000000 -0.000001 0.000000
vn 0.000000 0.048581 -0.998819
vn 0.000000 0.048581 -0.998819
vn 0.000000 0.048581 -0.998819
vn 0.000000 0.048581 -0.998819
vn -0.997016 -0.004293 0.077078
vn -0.997016 -0.004293 0.077078
vn -0.609833 -0.043589 0.791331
vn -0.609833 -0.043589 0.791331
vn 0.000000 -0.054480 0.998515
vn 0.000000 -0.054480 0.998515
vn 0.000000 -0.047749 0.998859
vn 0.000000 -0.047749 0.998859
vn 0.000000 1.000000 0.000000
vn 0.000000 1.000000 0.000000
vn 0.000000 1.000000 0.000000
vn 0.000000 1.000000 0.000000
vn -1.000000 0.000003 0.000000
vn -1.000000 0.000003 0.000000
vn -1.000000 0.000003 0.000000
vn -1.000000 0.000003 0.000000
vn 0.000000 -1.000000 0.000000
vn 0.000000 -1.000000 0.000000
vn 0.000000 -1.000000 0.000000
vn 0.000000 -1.000000 0.000000
s 1
g drawer_with_plates
usemtl initialShadingGroup
f 5/2/1 4/7/2 2/8/3 7/3/4
f 32/19/5 33/12/6 6/18/7 3/23/8
f 6/18/7 8/21/9 1/24/10 3/23/8
f 1/24/10 8/21/9 38/15/11 39/20/12
s 3
f 9/1/13 5/2/14 7/3/15 11/4/16
f 33/12/17 34/11/18 10/17/19 6/18/20
f 10/17/19 12/22/21 8/21/22 6/18/20
f 8/21/22 12/22/21 37/16/23 38/15/24
s off
f 15/33/25 13/34/26 9/35/27 11/36/28
f 34/57/29 35/58/30 14/59/31 10/60/32
f 14/37/33 16/38/34 12/39/35 10/40/36
f 12/61/37 16/62/38 36/63/39 37/64/40
f 35/25/41 36/26/42 16/27/43 14/28/44
s 5
f 1/65/45 39/66/46 40/67/47 17/68/48
s off
f 3/41/49 1/42/50 17/43/51 19/44/52
s 6
f 32/73/53 3/74/54 19/75/55 31/76/56
s off
f 2/45/57 4/46/58 20/47/59 18/48/60
s 6
f 4/79/61 22/77/62 21/78/63 20/80/64
s 1
f 4/7/2 5/2/1 23/6/65 22/13/66
s 3
f 5/2/14 9/1/13 24/5/67 23/6/68
s off
f 9/81/69 13/82/70 25/83/71 24/84/72
f 13/29/73 15/30/74 26/31/75 25/32/76
f 27/85/77 26/86/78 15/87/79 11/88/80
s 3
f 28/9/81 27/10/82 11/4/16 7/3/15
s 1
f 29/14/83 28/9/84 7/3/4 2/8/3
s 5
f 30/70/85 29/69/86 2/71/87 18/72/88
s 6
f 22/77/62 32/73/53 31/76/56 21/78/63
s 1
f 22/13/66 23/6/65 33/12/6 32/19/5
s 3
f 23/6/68 24/5/67 34/11/18 33/12/17
f 38/15/24 37/16/23 27/10/82 28/9/81
s 1
f 39/20/12 38/15/11 28/9/84 29/14/83
s 5
f 40/67/47 39/66/46 29/69/86 30/70/85
s off
f 34/49/89 37/50/90 36/51/91 35/52/92
f 24/5/93 27/10/94 37/16/95 34/11/96
f 25/53/97 26/54/98 27/55/99 24/56/100
