# This file uses centimeters as units for non-parametric coordinates.

mtllib Glass for the second floor.mtl
g default
v -3.367042 70.052475 -1.397122
v -2.432364 70.052475 -1.014467
v -1.497687 70.052475 -1.397122
v -3.673856 76.088745 -1.090307
v -2.432364 76.088745 -0.582044
v -1.190873 76.088745 -1.090307
v -4.182119 76.088745 -2.331799
v -0.682611 76.088745 -2.331799
v -3.673856 76.088745 -3.573291
v -2.432364 76.088745 -4.081553
v -1.190873 76.088745 -3.573291
v -3.367042 70.052475 -3.266476
v -2.432364 70.052475 -3.649131
v -1.497687 70.052475 -3.266476
v -3.749697 70.052475 -2.331799
v -1.115033 70.052475 -2.331799
v -3.355541 70.052475 -3.254976
v -2.432364 70.052475 -3.632922
v -3.733488 70.052475 -2.331799
v -1.509188 70.052475 -3.254976
v -1.131241 70.052475 -2.331799
v -2.432364 70.052475 -1.030676
v -3.355541 70.052475 -1.408622
v -1.509188 70.052475 -1.408622
v -3.355541 70.102470 -3.254976
v -2.432364 70.102470 -3.632922
v -3.733488 70.102470 -2.331799
v -1.509188 70.102470 -3.254976
v -1.131241 70.102470 -2.331799
v -2.432364 70.102470 -1.030676
v -3.355541 70.102470 -1.408622
v -1.509188 70.102470 -1.408622
v -3.344041 70.102470 -3.243475
v -2.432364 70.102470 -3.616714
v -2.432364 70.102470 -2.331799
v -3.717280 70.102470 -2.331799
v -1.520688 70.102470 -3.243475
v -1.147450 70.102470 -2.331799
v -2.432364 70.102470 -1.046885
v -3.344041 70.102470 -1.420122
v -1.520688 70.102470 -1.420122
v -1.176339 75.974083 -1.075773
v -2.432364 75.974083 -0.561560
v -3.688391 75.974083 -1.075773
v -4.202604 75.974083 -2.331799
v -3.688391 75.974083 -3.587825
v -2.432364 75.974083 -4.102038
v -1.176339 75.974083 -3.587825
v -0.662127 75.974083 -2.331799
v -2.432364 76.082077 -0.459432
v -1.104291 76.082077 -1.003726
v -2.432364 75.974182 -0.467819
v -1.110241 75.974182 -1.009676
v -3.754488 75.974182 -1.009675
v -3.760439 76.082077 -1.003725
v -4.296346 75.974182 -2.331799
v -4.304732 76.082077 -2.331799
v -3.754488 75.974182 -3.653922
v -3.760439 76.082077 -3.659873
v -2.432364 76.082077 -4.204166
v -2.432364 75.974182 -4.195779
v -1.110241 75.974182 -3.653922
v -1.104291 76.082077 -3.659873
v -0.568386 75.974182 -2.331799
v -0.559999 76.082077 -2.331799
v -3.669930 75.986603 -1.094233
v -2.432364 75.986603 -0.587614
v -1.194798 75.986603 -1.094233
v -3.669930 75.986603 -3.569366
v -2.432364 75.986603 -4.075983
v -1.194798 75.986603 -3.569366
v -4.176549 75.986603 -2.331799
v -0.688182 75.986603 -2.331799
v -3.685847 75.975029 -1.078316
v -2.432364 75.975029 -0.564599
v -1.178882 75.975029 -1.078316
v -3.685847 75.975029 -3.585281
v -2.432364 75.975029 -4.099000
v -1.178882 75.975029 -3.585281
v -4.199565 75.975029 -2.331799
v -0.665165 75.975029 -2.331799
v -3.693525 75.972054 -3.592959
v -4.209841 75.972054 -2.331799
v -3.693525 75.972054 -1.070638
v -2.432364 75.972054 -0.554323
v -1.171204 75.972054 -1.070638
v -0.654890 75.972054 -2.331799
v -1.171204 75.972054 -3.592959
v -2.432364 75.972054 -4.109275
v -3.694140 75.968407 -3.593575
v -2.432364 75.968407 -4.110229
v -1.170589 75.968407 -3.593575
v -0.653936 75.968407 -2.331799
v -1.170589 75.968407 -1.070023
v -2.432364 75.968407 -0.553369
v -3.694140 75.968407 -1.070023
v -4.210795 75.968407 -2.331799
v -3.749572 70.080994 -2.331799
v -3.366953 70.080994 -3.266387
v -2.432364 70.080994 -3.649006
v -1.497776 70.080994 -3.266387
v -1.115157 70.080994 -2.331799
v -1.497776 70.080994 -1.397210
v -2.432364 70.080994 -1.014592
v -3.366953 70.080994 -1.397210
v -2.432364 75.958786 -4.108239
v -3.692790 75.958786 -3.592224
v -4.208805 75.958786 -2.331799
v -3.692791 75.958786 -1.071374
v -2.432364 75.958786 -0.555359
v -1.171939 75.958786 -1.071374
v -0.655926 75.958786 -2.331799
v -1.171939 75.958786 -3.592224
vt 0.816358 0.813995
vt 0.816358 0.743840
vt 0.820157 0.743840
vt 0.820157 0.813995
vt 0.816358 0.884150
vt 0.820157 0.884150
vt 0.827240 0.884150
vt 0.827240 0.813996
vt 0.831039 0.813996
vt 0.831039 0.884150
vt 0.827240 0.743840
vt 0.831039 0.743840
vt 0.292217 0.830342
vt 0.292217 0.729870
vt 0.300416 0.729418
vt 0.300416 0.830342
vt 0.292217 0.930814
vt 0.300416 0.931266
vt 0.321235 0.830342
vt 0.321235 0.729870
vt 0.329435 0.729418
vt 0.329435 0.830342
vt 0.329435 0.931266
vt 0.321235 0.930815
vt 0.784220 0.838185
vt 0.784220 0.932529
vt 0.776458 0.932231
vt 0.776458 0.838185
vt 0.784220 0.743840
vt 0.776458 0.744138
vt 0.798729 0.743840
vt 0.798729 0.838185
vt 0.790967 0.838185
vt 0.790967 0.744139
vt 0.798729 0.932529
vt 0.790967 0.932232
vt 0.097693 0.001992
vt 0.097693 0.004159
vt 0.026671 0.004159
vt 0.026664 0.001992
vt 0.168722 0.001992
vt 0.168715 0.004159
vt 0.097693 0.450830
vt 0.001910 0.450830
vt 0.193477 0.450830
vt 0.097693 0.451838
vt 0.001854 0.451838
vt 0.193532 0.451838
vt 0.493247 0.004159
vt 0.422225 0.004159
vt 0.422218 0.001992
vt 0.493247 0.001992
vt 0.493247 0.450830
vt 0.397464 0.450830
vt 0.564276 0.001992
vt 0.564269 0.004159
vt 0.493247 0.451838
vt 0.397408 0.451838
vt 0.589031 0.450830
vt 0.589087 0.451838
vt 0.214350 0.455553
vt 0.214350 0.456103
vt 0.118900 0.495179
vt 0.118510 0.494789
vt 0.309799 0.495179
vt 0.310189 0.494789
vt 0.079824 0.590628
vt 0.079274 0.590628
vt 0.348875 0.590628
vt 0.349425 0.590628
vt 0.118900 0.686078
vt 0.118510 0.686468
vt 0.310189 0.686468
vt 0.309799 0.686078
vt 0.214350 0.725154
vt 0.214350 0.725704
vt 0.572094 0.911998
vt 0.543730 0.842717
vt 0.641375 0.842717
vt 0.641375 0.940361
vt 0.571220 0.912872
vt 0.542499 0.842717
vt 0.572094 0.773436
vt 0.641375 0.745072
vt 0.739019 0.842717
vt 0.710656 0.911998
vt 0.641375 0.941593
vt 0.571220 0.772562
vt 0.641375 0.743841
vt 0.710656 0.773436
vt 0.740251 0.842717
vt 0.711530 0.912872
vt 0.711530 0.772562
vt 0.364823 0.913703
vt 0.335744 0.842674
vt 0.336976 0.842674
vt 0.365697 0.912829
vt 0.364823 0.771645
vt 0.365697 0.772519
vt 0.435852 0.942782
vt 0.435852 0.941550
vt 0.435852 0.742566
vt 0.435852 0.743798
vt 0.506881 0.913703
vt 0.506007 0.912829
vt 0.506881 0.771645
vt 0.506007 0.772519
vt 0.535960 0.842674
vt 0.534728 0.842674
vt 0.880774 0.503495
vt 0.786429 0.464870
vt 0.786429 0.455553
vt 0.887354 0.496915
vt 0.692085 0.503495
vt 0.685505 0.496915
vt 0.919398 0.597839
vt 0.928716 0.597839
vt 0.653460 0.597839
vt 0.644143 0.597839
vt 0.880774 0.692184
vt 0.887354 0.698764
vt 0.692085 0.692184
vt 0.685505 0.698764
vt 0.786429 0.730809
vt 0.786429 0.740126
vt 0.042102 0.957760
vt 0.136149 0.996259
vt 0.136149 0.998008
vt 0.040893 0.958969
vt 0.230195 0.957760
vt 0.231405 0.958969
vt 0.003603 0.863713
vt 0.001854 0.863713
vt 0.268694 0.863713
vt 0.270443 0.863713
vt 0.042102 0.769667
vt 0.040893 0.768457
vt 0.230195 0.769667
vt 0.231405 0.768457
vt 0.136149 0.731167
vt 0.136149 0.729418
vt 0.496784 0.462054
vt 0.400898 0.501316
vt 0.396312 0.496730
vt 0.496784 0.455553
vt 0.496784 0.462676
vt 0.401335 0.501753
vt 0.361636 0.597202
vt 0.355134 0.597202
vt 0.592670 0.501316
vt 0.597256 0.496730
vt 0.362258 0.597202
vt 0.592233 0.501753
vt 0.400898 0.693088
vt 0.396312 0.697674
vt 0.631932 0.597202
vt 0.638433 0.597202
vt 0.401335 0.692651
vt 0.631310 0.597202
vt 0.496784 0.732350
vt 0.496784 0.738852
vt 0.592670 0.693088
vt 0.597256 0.697674
vt 0.496784 0.731728
vt 0.592233 0.692651
vt 0.805476 0.884150
vt 0.805476 0.813995
vt 0.809275 0.813995
vt 0.809275 0.884150
vt 0.805476 0.743840
vt 0.809275 0.743840
vt 0.841921 0.813995
vt 0.841921 0.884150
vt 0.838121 0.884150
vt 0.838121 0.813995
vt 0.841921 0.743840
vt 0.838121 0.743840
vt 0.285907 0.729418
vt 0.285907 0.830342
vt 0.277708 0.830342
vt 0.277708 0.729870
vt 0.277708 0.930815
vt 0.285907 0.931267
vt 0.306726 0.830342
vt 0.314925 0.830342
vt 0.314925 0.930815
vt 0.306726 0.931267
vt 0.314925 0.729870
vt 0.306726 0.729418
vt 0.747440 0.932529
vt 0.747440 0.838185
vt 0.755202 0.838185
vt 0.755202 0.932231
vt 0.747440 0.743840
vt 0.755202 0.744139
vt 0.769711 0.838185
vt 0.769711 0.932529
vt 0.761949 0.932231
vt 0.761949 0.838185
vt 0.769711 0.743840
vt 0.761949 0.744139
vt 0.295561 0.001992
vt 0.295561 0.004159
vt 0.224539 0.004159
vt 0.224532 0.001992
vt 0.366583 0.004159
vt 0.366590 0.001992
vt 0.295561 0.450830
vt 0.199777 0.450830
vt 0.391344 0.450830
vt 0.295561 0.451838
vt 0.199721 0.451838
vt 0.391400 0.451838
vt 0.761962 0.451838
vt 0.690933 0.451838
vt 0.690933 0.449671
vt 0.761956 0.449671
vt 0.619911 0.449671
vt 0.619905 0.451838
vt 0.690933 0.003000
vt 0.786717 0.003000
vt 0.595150 0.003000
vt 0.690933 0.001992
vt 0.786773 0.001992
vt 0.595094 0.001992
vn -0.000036 0.294661 0.955602
vn -0.000004 0.962788 0.270258
vn -0.109865 0.956986 0.268529
vn -0.364570 0.272667 0.890360
vn 0.109859 0.956934 0.268715
vn 0.364486 0.272623 0.890408
vn -0.000005 0.962785 -0.270267
vn -0.000002 0.294652 -0.955605
vn -0.364588 0.272645 -0.890359
vn -0.109869 0.956983 -0.268539
vn 0.364570 0.272586 -0.890385
vn 0.109862 0.956932 -0.268723
vn 0.000000 -1.000000 0.000001
vn 0.000000 -1.000000 0.000001
vn 0.000000 -1.000000 0.000000
vn 0.000000 -1.000000 -0.000001
vn 0.000000 -1.000000 0.000004
vn 0.000000 -1.000000 0.000000
vn 0.000000 -1.000000 -0.000001
vn 0.000000 -1.000000 -0.000001
vn 0.000000 -1.000000 -0.000005
vn 0.955611 0.294632 0.000097
vn 0.890396 0.272636 -0.364506
vn 0.268373 0.957016 -0.109986
vn 0.270009 0.962858 0.000000
vn 0.268370 0.957017 0.109984
vn 0.890346 0.272586 0.364667
vn -0.955609 0.294638 0.000028
vn -0.270024 0.962854 -0.000001
vn -0.268397 0.957027 -0.109833
vn -0.890419 0.272598 -0.364478
vn -0.890387 0.272625 0.364537
vn -0.268384 0.957031 0.109827
vn 0.000000 -1.000000 -0.000168
vn 0.000000 -1.000000 -0.000418
vn 0.000000 -1.000000 -0.000418
vn 0.000000 -1.000000 -0.000168
vn 0.000000 -1.000000 0.000022
vn 0.000000 -1.000000 0.000022
vn 0.000000 -1.000000 -0.000216
vn 0.000000 -1.000000 -0.000216
vn 0.000000 -1.000000 -0.000022
vn 0.000000 -1.000000 -0.000022
vn 0.000000 -1.000000 0.000418
vn 0.000000 -1.000000 0.000279
vn 0.000000 -1.000000 0.000279
vn 0.000000 -1.000000 0.000418
vn 0.000000 -1.000000 0.000105
vn 0.000000 -1.000000 0.000105
vn 0.378853 0.000000 0.925457
vn 0.378853 0.000000 0.925457
vn 0.378853 0.000000 0.925457
vn 0.378853 0.000000 0.925457
vn 0.925444 0.000000 0.378885
vn 0.925444 0.000000 0.378885
vn 0.925444 0.000000 0.378885
vn 0.925444 0.000000 0.378885
vn -0.378853 0.000000 0.925457
vn -0.378853 0.000000 0.925457
vn -0.378853 0.000000 0.925457
vn -0.378853 0.000000 0.925457
vn -0.925457 0.000000 0.378852
vn -0.925457 0.000000 0.378852
vn -0.925457 0.000000 0.378852
vn -0.925457 0.000000 0.378852
vn 0.378853 0.000000 -0.925457
vn 0.378853 0.000000 -0.925457
vn 0.378853 0.000000 -0.925457
vn 0.378853 0.000000 -0.925457
vn 0.925444 0.000000 -0.378885
vn 0.925444 0.000000 -0.378885
vn 0.925444 0.000000 -0.378885
vn 0.925444 0.000000 -0.378885
vn -0.925457 0.000000 -0.378852
vn -0.925457 0.000000 -0.378852
vn -0.925457 0.000000 -0.378852
vn -0.925457 0.000000 -0.378852
vn -0.378853 0.000000 -0.925457
vn -0.378853 0.000000 -0.925457
vn -0.378853 0.000000 -0.925457
vn -0.378853 0.000000 -0.925457
vn 0.000000 -1.000000 -0.000090
vn 0.000000 -1.000000 -0.000202
vn 0.000000 -1.000000 -0.000026
vn 0.000000 -1.000000 -0.000118
vn 0.000000 -1.000000 0.000022
vn 0.000000 -1.000000 0.000202
vn 0.000000 -1.000000 0.000118
vn 0.000000 -1.000000 0.000086
vn 0.378247 -0.071748 0.922920
vn 0.000005 -0.077507 0.996992
vn 0.000005 -0.077507 0.996992
vn 0.378247 -0.071748 0.922920
vn -0.378238 -0.071749 0.922924
vn -0.378238 -0.071749 0.922924
vn -0.996992 -0.077511 0.000003
vn -0.922921 -0.071751 0.378243
vn -0.922921 -0.071751 0.378243
vn -0.996992 -0.077511 0.000003
vn -0.922924 -0.071753 -0.378238
vn -0.922924 -0.071753 -0.378238
vn 0.000004 -0.077510 -0.996992
vn 0.000004 -0.077510 -0.996992
vn -0.378240 -0.071752 -0.922923
vn -0.378240 -0.071752 -0.922923
vn 0.378247 -0.071752 -0.922920
vn 0.378247 -0.071752 -0.922920
vn 0.996992 -0.077507 0.000003
vn 0.922917 -0.071750 -0.378254
vn 0.922917 -0.071750 -0.378254
vn 0.996992 -0.077507 0.000003
vn 0.922914 -0.071747 0.378261
vn 0.922914 -0.071747 0.378261
vn 0.038362 0.998527 0.038370
vn 0.000000 0.998517 0.054440
vn 0.000000 0.998517 0.054440
vn 0.038362 0.998527 0.038370
vn -0.000018 -0.820475 -0.571682
vn -0.403263 -0.821352 -0.403434
vn 0.017665 -0.999688 0.017655
vn -0.000001 -0.999695 0.024686
vn 0.403331 -0.821464 -0.403139
vn -0.017666 -0.999688 0.017658
vn -0.038362 0.998528 0.038357
vn -0.038362 0.998527 0.038357
vn 0.571642 -0.820503 -0.000024
vn -0.024705 -0.999695 0.000000
vn -0.054428 0.998518 0.000002
vn -0.054428 0.998518 0.000002
vn 0.403342 -0.821523 0.403009
vn -0.017664 -0.999688 -0.017680
vn -0.038362 0.998528 -0.038351
vn -0.038362 0.998528 -0.038351
vn -0.000007 -0.820572 0.571543
vn -0.000000 -0.999695 -0.024703
vn -0.000000 0.998518 -0.054428
vn -0.000000 0.998518 -0.054428
vn -0.403282 -0.821402 0.403315
vn 0.017663 -0.999688 -0.017657
vn 0.038362 0.998527 -0.038370
vn 0.038362 0.998527 -0.038370
vn -0.571646 -0.820500 -0.000083
vn 0.024704 -0.999695 -0.000008
vn 0.054428 0.998518 -0.000008
vn 0.054428 0.998518 -0.000008
vn 0.378389 0.050232 -0.924283
vn 0.378389 0.050232 -0.924283
vn 0.378389 0.050232 -0.924283
vn 0.378389 0.050232 -0.924283
vn -0.378382 0.050232 -0.924286
vn -0.378382 0.050232 -0.924286
vn -0.378382 0.050232 -0.924286
vn -0.378382 0.050232 -0.924286
vn 0.378381 0.050231 0.924286
vn 0.378381 0.050231 0.924286
vn 0.378381 0.050231 0.924286
vn 0.378381 0.050231 0.924286
vn -0.378389 0.050232 0.924283
vn -0.378389 0.050232 0.924283
vn -0.378389 0.050232 0.924283
vn -0.378389 0.050232 0.924283
vn 0.924286 0.050235 -0.378379
vn 0.924287 0.050235 -0.378379
vn 0.924286 0.050235 -0.378379
vn 0.924287 0.050235 -0.378379
vn -0.924289 0.050237 -0.378374
vn -0.924289 0.050237 -0.378374
vn -0.924289 0.050237 -0.378374
vn -0.924289 0.050237 -0.378374
vn 0.924289 0.050234 0.378374
vn 0.924289 0.050234 0.378374
vn 0.924289 0.050234 0.378374
vn 0.924289 0.050234 0.378374
vn -0.924282 0.050235 0.378391
vn -0.924282 0.050235 0.378391
vn -0.924282 0.050235 0.378391
vn -0.924282 0.050235 0.378391
vn 0.320054 -0.891680 -0.320114
vn 0.000000 -0.891043 -0.453918
vn 0.000000 -0.891043 -0.453918
vn 0.320056 -0.891680 -0.320112
vn -0.320051 -0.891660 -0.320172
vn -0.320052 -0.891660 -0.320170
vn -0.000004 -0.891063 0.453879
vn 0.320050 -0.891675 0.320131
vn 0.320056 -0.891675 0.320125
vn -0.000004 -0.891063 0.453879
vn -0.320051 -0.891673 0.320134
vn -0.320057 -0.891673 0.320128
vn 0.453807 -0.891100 0.000014
vn 0.453807 -0.891100 0.000014
vn -0.453812 -0.891097 0.000000
vn -0.453812 -0.891097 0.000000
vn -0.999990 0.004383 -0.000003
vn -0.996988 -0.077562 0.000000
vn -0.923058 -0.071811 -0.377898
vn -0.925444 0.004056 -0.378863
vn -0.925444 0.004056 0.378863
vn -0.923058 -0.071811 0.377898
vn -0.000003 0.004373 0.999990
vn 0.000000 -0.077562 0.996988
vn -0.377897 -0.071811 0.923058
vn -0.378841 0.004048 0.925453
vn 0.377898 -0.071811 0.923058
vn 0.378903 0.004047 0.925428
vn 0.996988 -0.077562 -0.000000
vn 0.923059 -0.071811 0.377897
vn 0.925430 0.004044 0.378897
vn 0.999990 0.004372 -0.000000
vn 0.925430 0.004048 -0.378897
vn 0.923059 -0.071811 -0.377897
vn 0.378903 0.004055 -0.925428
vn -0.000031 0.004382 -0.999990
vn 0.000000 -0.077562 -0.996988
vn 0.377898 -0.071811 -0.923058
vn -0.377898 -0.071811 -0.923058
vn -0.378868 0.004055 -0.925442
vn -0.047609 -0.997731 -0.047603
vn 0.000000 -0.997717 -0.067536
vn 0.047609 -0.997731 -0.047605
vn 0.067545 -0.997716 -0.000002
vn 0.047608 -0.997731 0.047612
vn -0.000000 -0.997717 0.067527
vn -0.047608 -0.997732 0.047588
vn -0.067545 -0.997716 0.000002
vn -0.996962 -0.077893 0.000000
vn -0.923038 -0.072117 -0.377889
vn 0.000000 -0.077893 -0.996962
vn -0.377890 -0.072117 -0.923038
vn 0.377889 -0.072117 -0.923038
vn 0.996962 -0.077893 0.000000
vn 0.923038 -0.072117 -0.377889
vn 0.923038 -0.072117 0.377889
vn -0.000000 -0.077893 0.996962
vn 0.377889 -0.072117 0.923038
vn -0.377889 -0.072117 0.923038
vn -0.923038 -0.072117 0.377890
s 1
g glass_for_second_floor
usemtl initialShadingGroup
f 85/61/1 43/62/2 44/63/3 84/64/4
f 42/65/5 43/62/2 85/61/1 86/66/6
s 2
f 47/75/7 89/76/8 82/72/9 46/71/10
f 88/73/11 89/76/8 47/75/7 48/74/12
s 3
f 33/77/13 34/78/14 35/79/15 36/80/16
f 34/78/14 37/83/17 38/84/18 35/79/15
f 36/80/16 35/79/15 39/85/19 40/86/20
f 35/79/15 38/84/18 41/90/21 39/85/19
s 4
f 87/70/22 88/73/23 48/74/24 49/69/25
f 49/69/25 42/65/26 86/66/27 87/70/22
s 5
f 83/68/28 45/67/29 46/71/30 82/72/31
f 84/64/32 44/63/33 45/67/29 83/68/28
s 6
f 12/94/34 13/95/35 18/96/36 17/97/37
f 15/100/38 12/94/34 17/97/37 19/101/39
f 13/95/35 14/98/40 20/99/41 18/96/36
f 14/98/40 16/102/42 21/103/43 20/99/41
f 2/108/44 1/104/45 23/105/46 22/109/47
f 1/104/45 15/100/38 19/101/39 23/105/46
f 16/102/42 3/106/48 24/107/49 21/103/43
f 3/106/48 2/108/44 22/109/47 24/107/49
s off
f 17/166/50 18/167/51 26/168/52 25/169/53
f 19/1/54 17/2/55 25/3/56 27/4/57
f 18/167/58 20/170/59 28/171/60 26/168/61
f 20/7/62 21/8/63 29/9/64 28/10/65
f 22/172/66 23/173/67 31/174/68 30/175/69
f 23/5/70 19/1/71 27/4/72 31/6/73
f 21/8/74 24/11/75 32/12/76 29/9/77
f 24/176/78 22/172/79 30/175/80 32/177/81
s 3
f 25/81/82 26/82/83 34/78/14 33/77/13
f 27/87/84 25/81/82 33/77/13 36/80/16
f 26/82/83 28/88/85 37/83/17 34/78/14
f 28/88/85 29/89/86 38/84/18 37/83/17
f 30/91/87 31/92/88 40/86/20 39/85/19
f 31/92/88 27/87/84 36/80/16 40/86/20
f 29/89/86 32/93/89 41/90/21 38/84/18
f 32/93/89 30/91/87 39/85/19 41/90/21
s 7
f 51/178/90 50/179/91 52/180/92 53/181/93
f 54/182/94 52/180/92 50/179/91 55/183/95
s 8
f 56/13/96 54/14/97 55/15/98 57/16/99
f 58/17/100 56/13/96 57/16/99 59/18/101
s 9
f 60/184/102 61/185/103 58/186/104 59/187/105
f 62/188/106 61/185/103 60/184/102 63/189/107
s 10
f 64/19/108 62/20/109 63/21/110 65/22/111
f 51/23/112 53/24/113 64/19/108 65/22/111
s 11
f 6/110/114 5/111/115 50/112/116 51/113/117
s 12
f 43/164/118 42/165/119 94/162/120 95/160/121
f 44/158/122 43/164/118 95/160/121 96/154/123
s 11
f 5/111/115 4/114/124 55/115/125 50/112/116
s 12
f 45/152/126 44/158/122 96/154/123 97/148/127
s 11
f 4/114/124 7/118/128 57/119/129 55/115/125
s 12
f 46/147/130 45/152/126 97/148/127 90/143/131
s 11
f 7/118/128 9/122/132 59/123/133 57/119/129
s 12
f 47/146/134 46/147/130 90/143/131 91/142/135
s 11
f 9/122/132 10/124/136 60/125/137 59/123/133
s 12
f 48/153/138 47/146/134 91/142/135 92/150/139
s 11
f 10/124/136 11/120/140 63/121/141 60/125/137
s 12
f 49/159/142 48/153/138 92/150/139 93/156/143
s 11
f 11/120/140 8/116/144 65/117/145 63/121/141
s 12
f 42/165/119 49/159/142 93/156/143 94/162/120
s 11
f 8/116/144 6/110/114 51/113/117 65/117/145
s off
f 4/190/146 5/191/147 67/192/148 66/193/149
f 5/191/150 6/194/151 68/195/152 67/192/153
f 10/196/154 9/197/155 69/198/156 70/199/157
f 11/200/158 10/196/159 70/199/160 71/201/161
f 7/25/162 4/26/163 66/27/164 72/28/165
f 6/31/166 8/32/167 73/33/168 68/34/169
f 9/29/170 7/25/171 72/28/172 69/30/173
f 8/32/174 11/35/175 71/36/176 73/33/177
s 13
f 66/126/178 67/127/179 75/128/180 74/129/181
f 67/127/179 68/130/182 76/131/183 75/128/180
f 70/140/184 69/136/185 77/137/186 78/141/187
f 71/138/188 70/140/184 78/141/187 79/139/189
f 72/132/190 66/126/178 74/129/181 80/133/191
f 68/130/182 73/134/192 81/135/193 76/131/183
f 69/136/185 72/132/190 80/133/191 77/137/186
f 73/134/192 71/138/188 79/139/189 81/135/193
s 5
f 15/37/194 98/38/195 99/39/196 12/40/197
f 1/41/198 105/42/199 98/38/195 15/37/194
s 1
f 2/202/200 104/203/201 105/204/202 1/205/203
f 103/206/204 104/203/201 2/202/200 3/207/205
s 4
f 102/49/206 103/50/207 3/51/208 16/52/209
f 16/52/209 14/55/210 101/56/211 102/49/206
s 2
f 14/214/212 13/215/213 100/216/214 101/217/215
f 99/218/216 100/216/214 13/215/213 12/219/217
s 12
f 91/142/135 90/143/131 58/144/218 61/145/219
f 92/150/139 91/142/135 61/145/219 62/151/220
f 93/156/143 92/150/139 62/151/220 64/157/221
f 94/162/120 93/156/143 64/157/221 53/163/222
f 95/160/121 94/162/120 53/163/222 52/161/223
f 96/154/123 95/160/121 52/161/223 54/155/224
f 97/148/127 96/154/123 54/155/224 56/149/225
f 90/143/131 97/148/127 56/149/225 58/144/218
s 5
f 108/43/226 83/46/28 82/47/31 107/44/227
s 2
f 82/225/9 89/223/8 106/220/228 107/222/229
f 113/221/230 106/220/228 89/223/8 88/224/11
s 4
f 112/53/231 113/59/232 88/60/23 87/57/22
f 87/57/22 86/58/27 111/54/233 112/53/231
s 1
f 86/213/6 85/211/1 110/208/234 111/210/235
f 109/209/236 110/208/234 85/211/1 84/212/4
s 5
f 108/43/226 109/45/237 84/48/32 83/46/28
s 2
f 107/222/229 106/220/228 100/216/214 99/218/216
s 5
f 98/38/195 108/43/226 107/44/227 99/39/196
f 98/38/195 105/42/199 109/45/237 108/43/226
s 1
f 105/204/202 104/203/201 110/208/234 109/209/236
f 111/210/235 110/208/234 104/203/201 103/206/204
s 4
f 112/53/231 111/54/233 103/50/207 102/49/206
f 102/49/206 101/56/211 113/59/232 112/53/231
s 2
f 101/217/215 100/216/214 106/220/228 113/221/230
