# This file uses centimeters as units for non-parametric coordinates.

mtllib Painting in the common room.mtl
g default
v -19.323748 47.704117 -58.350735
v -19.323750 27.880552 -58.350735
v 10.411595 47.704117 -58.350739
v 10.411596 27.880552 -58.350739
v -22.272808 50.467026 -58.350739
v -22.272808 25.117643 -58.350739
v 13.360658 50.467026 -58.350739
v 13.360659 25.117643 -58.350739
v -19.323746 47.704117 -57.697815
v -19.323746 27.880554 -57.697815
v -22.272806 50.467026 -57.697811
v -22.272808 25.117645 -57.697811
v 10.411599 47.704117 -57.697811
v 13.360658 50.467026 -57.697819
v 10.411600 27.880552 -57.697811
v 13.360659 25.117643 -57.697811
v -19.474932 47.845760 -57.697811
v -19.474934 27.738911 -57.697811
v -21.390305 49.640232 -57.697815
v -21.390306 25.944441 -57.697815
v 10.562784 47.845760 -57.697811
v 12.478159 49.640228 -57.697819
v 10.562784 27.738911 -57.697811
v 12.478159 25.944441 -57.697811
v -19.474932 47.845760 -57.304028
v -19.474932 27.738911 -57.304028
v -21.390305 49.640232 -57.304031
v -21.390305 25.944439 -57.304031
v 10.562783 47.845760 -57.304028
v 12.478158 49.640232 -57.304035
v 10.562784 27.738909 -57.304031
v 12.478159 25.944439 -57.304031
v -19.565643 47.930748 -57.304031
v -19.565643 27.653925 -57.304031
v -20.860804 49.144154 -57.304028
v -20.860806 26.440517 -57.304028
v 10.653498 47.930744 -57.304028
v 11.948655 49.144154 -57.304035
v 10.653498 27.653925 -57.304031
v 11.948656 26.440516 -57.304031
v -19.565643 47.930748 -57.304031
v -19.565643 27.653925 -57.304031
v -20.860804 49.144154 -57.304028
v -20.860806 26.440517 -57.304028
v 10.653498 47.930744 -57.304028
v 11.948655 49.144154 -57.304035
v 10.653498 27.653925 -57.304031
v 11.948656 26.440516 -57.304031
v -19.456076 47.792336 -58.206436
v -19.456076 27.792336 -58.206436
v 10.543924 47.792336 -58.206432
v 10.543924 27.792336 -58.206432
vt 0.295868 0.370487
vt 0.295868 0.001992
vt 0.302366 0.001992
vt 0.302366 0.370487
vt 0.308864 0.370487
vt 0.308864 0.001992
vt 0.315362 0.001992
vt 0.315362 0.370487
vt 0.321860 0.370487
vt 0.321860 0.001992
vt 0.328359 0.001992
vt 0.328359 0.370487
vt 0.334857 0.370487
vt 0.334857 0.001992
vt 0.341355 0.001992
vt 0.341355 0.370487
vt 0.295868 0.370487
vt 0.295868 0.001992
vt 0.302366 0.001992
vt 0.302366 0.370487
vt 0.308864 0.370487
vt 0.308864 0.001992
vt 0.315362 0.001992
vt 0.315362 0.370487
vt 0.321860 0.370487
vt 0.321860 0.001992
vt 0.328359 0.001992
vt 0.328359 0.370487
vt 0.334857 0.370487
vt 0.334857 0.001992
vt 0.341355 0.001992
vt 0.341355 0.370487
vt 0.312367 0.687770
vt 0.312367 0.892771
vt 0.305615 0.892771
vt 0.305615 0.687770
vt 0.240633 0.949915
vt 0.240633 0.687770
vt 0.247385 0.687770
vt 0.247385 0.949915
vt 0.318611 0.892771
vt 0.318611 0.687770
vt 0.325363 0.687770
vt 0.325363 0.892771
vt 0.260381 0.687770
vt 0.260381 0.949915
vt 0.253629 0.949915
vt 0.253629 0.687770
vt 0.290192 0.687770
vt 0.290192 0.895700
vt 0.286120 0.895700
vt 0.286120 0.687770
vt 0.266626 0.932814
vt 0.266626 0.687770
vt 0.270698 0.687770
vt 0.270698 0.932814
vt 0.295868 0.895700
vt 0.295868 0.687770
vt 0.299940 0.687770
vt 0.299940 0.895700
vt 0.280445 0.687770
vt 0.280445 0.932814
vt 0.276373 0.932814
vt 0.276373 0.687770
vt 0.214640 0.995271
vt 0.214640 0.687770
vt 0.221392 0.687770
vt 0.221392 0.995271
vt 0.008413 0.001992
vt 0.008413 0.370487
vt 0.001660 0.370487
vt 0.001661 0.001992
vt 0.234388 0.687770
vt 0.234388 0.995271
vt 0.227636 0.995271
vt 0.227636 0.687770
vt 0.014819 0.370487
vt 0.014819 0.001992
vt 0.021571 0.001992
vt 0.021571 0.370487
vt 0.160075 0.684443
vt 0.160075 0.373815
vt 0.164148 0.373815
vt 0.164148 0.684443
vt 0.351926 0.001992
vt 0.351926 0.352235
vt 0.347853 0.352235
vt 0.347853 0.001992
vt 0.154961 0.373815
vt 0.154961 0.684443
vt 0.150889 0.684443
vt 0.150889 0.373815
vt 0.357601 0.352235
vt 0.357601 0.001992
vt 0.361673 0.001992
vt 0.361673 0.352235
vt 0.609657 0.681460
vt 0.819345 0.681460
vt 0.831893 0.694854
vt 0.597109 0.694854
vt 0.819345 0.368956
vt 0.831893 0.355562
vt 0.609657 0.368956
vt 0.597109 0.355562
vt 0.170727 0.682879
vt 0.375727 0.682879
vt 0.377192 0.684443
vt 0.169262 0.684443
vt 0.375727 0.375378
vt 0.377192 0.373815
vt 0.170727 0.375378
vt 0.169262 0.373815
vt 0.289961 0.370487
vt 0.027816 0.370487
vt 0.036366 0.361361
vt 0.281411 0.361361
vt 0.027816 0.001992
vt 0.036366 0.011118
vt 0.289961 0.001992
vt 0.281411 0.011118
vt 0.383185 0.667128
vt 0.591116 0.667128
vt 0.591994 0.668067
vt 0.382306 0.668067
vt 0.591116 0.356500
vt 0.591994 0.355562
vt 0.383185 0.356500
vt 0.382306 0.355562
vt 0.612393 0.352235
vt 0.367348 0.352235
vt 0.372478 0.346759
vt 0.607263 0.346759
vt 0.367348 0.001992
vt 0.372478 0.007468
vt 0.612393 0.001992
vt 0.607263 0.007468
vt 0.208486 0.998008
vt 0.001660 0.998008
vt 0.001660 0.687770
vt 0.208486 0.687770
vn 0.000007 -0.000000 1.000000
vn 0.000007 -0.000000 1.000000
vn 0.000007 -0.000000 1.000000
vn 0.000007 -0.000000 1.000000
vn -0.000000 0.000002 1.000000
vn -0.000000 0.000002 1.000000
vn -0.000000 0.000002 1.000000
vn -0.000000 0.000002 1.000000
vn 0.000000 0.000002 1.000000
vn 0.000000 0.000002 1.000000
vn 0.000000 0.000002 1.000000
vn 0.000000 0.000002 1.000000
vn 0.000003 0.000000 1.000000
vn 0.000003 0.000000 1.000000
vn 0.000003 0.000000 1.000000
vn 0.000003 0.000000 1.000000
vn 1.000000 -0.000000 -0.000004
vn 1.000000 -0.000000 -0.000004
vn 1.000000 -0.000000 -0.000004
vn 1.000000 -0.000000 -0.000004
vn -1.000000 0.000000 0.000001
vn -1.000000 0.000000 0.000001
vn -1.000000 0.000000 0.000001
vn -1.000000 0.000000 0.000001
vn 0.000000 -1.000000 -0.000002
vn 0.000000 -1.000000 -0.000002
vn 0.000000 -1.000000 -0.000002
vn 0.000000 -1.000000 -0.000002
vn 0.000000 1.000000 -0.000005
vn 0.000000 1.000000 -0.000005
vn 0.000000 1.000000 -0.000005
vn 0.000000 1.000000 -0.000005
vn 0.000000 1.000000 -0.000004
vn 0.000000 1.000000 -0.000004
vn 0.000000 1.000000 -0.000004
vn 0.000000 1.000000 -0.000004
vn -0.000000 -1.000000 0.000003
vn -0.000000 -1.000000 0.000003
vn -0.000000 -1.000000 0.000003
vn -0.000000 -1.000000 0.000003
vn -1.000000 -0.000000 0.000006
vn -1.000000 -0.000000 0.000006
vn -1.000000 -0.000000 0.000006
vn -1.000000 -0.000000 0.000006
vn 1.000000 0.000000 0.000000
vn 1.000000 0.000000 0.000000
vn 1.000000 0.000000 0.000000
vn 1.000000 0.000000 0.000000
vn 0.000005 0.000008 1.000000
vn 0.000005 -0.000008 1.000000
vn 0.000005 -0.000008 1.000000
vn 0.000005 0.000008 1.000000
vn 0.000004 -0.000001 1.000000
vn 0.000004 0.000001 1.000000
vn 0.000004 0.000001 1.000000
vn 0.000004 -0.000001 1.000000
vn 0.000012 -0.000008 1.000000
vn 0.000012 -0.000008 1.000000
vn -0.000001 -0.000001 1.000000
vn -0.000001 -0.000001 1.000000
vn 0.000012 0.000008 1.000000
vn 0.000012 0.000008 1.000000
vn -0.000001 0.000001 1.000000
vn -0.000001 0.000001 1.000000
vn 1.000000 -0.000000 -0.000002
vn 1.000000 -0.000000 -0.000002
vn 1.000000 -0.000000 -0.000002
vn 1.000000 -0.000000 -0.000002
vn -1.000000 0.000000 0.000002
vn -1.000000 0.000000 0.000002
vn -1.000000 0.000000 0.000002
vn -1.000000 0.000000 0.000002
vn 0.000000 -1.000000 0.000000
vn 0.000000 -1.000000 0.000000
vn 0.000000 -1.000000 0.000000
vn 0.000000 -1.000000 0.000000
vn 0.000000 1.000000 -0.000013
vn 0.000000 1.000000 -0.000013
vn 0.000000 1.000000 -0.000013
vn 0.000000 1.000000 -0.000013
vn 0.000000 1.000000 0.000000
vn 0.000000 1.000000 0.000000
vn 0.000000 1.000000 0.000000
vn 0.000000 1.000000 0.000000
vn 0.000000 -1.000000 -0.000010
vn 0.000000 -1.000000 -0.000010
vn 0.000000 -1.000000 -0.000010
vn 0.000000 -1.000000 -0.000010
vn -1.000000 0.000000 -0.000001
vn -1.000000 0.000000 -0.000001
vn -1.000000 0.000000 -0.000001
vn -1.000000 0.000000 -0.000001
vn 1.000000 0.000000 0.000001
vn 1.000000 0.000000 0.000001
vn 1.000000 0.000000 0.000001
vn 1.000000 0.000000 0.000001
vn -0.000021 -0.000013 1.000000
vn -0.000021 0.000013 1.000000
vn -0.000022 0.000013 1.000000
vn -0.000022 -0.000013 1.000000
vn -0.000007 0.000002 1.000000
vn -0.000007 -0.000002 1.000000
vn -0.000007 -0.000002 1.000000
vn -0.000007 0.000002 1.000000
vn 0.000018 0.000013 1.000000
vn 0.000019 0.000013 1.000000
vn 0.000002 0.000002 1.000000
vn 0.000002 0.000002 1.000000
vn 0.000018 -0.000013 1.000000
vn 0.000019 -0.000013 1.000000
vn 0.000002 -0.000002 1.000000
vn 0.000002 -0.000002 1.000000
vn 0.000000 0.000000 0.000000
vn 0.000000 0.000000 0.000000
vn 0.000000 0.000000 0.000000
vn 0.000000 0.000000 0.000000
vn 0.000000 0.000000 0.000000
vn 0.000000 0.000000 0.000000
vn 0.000000 0.000000 0.000000
vn 0.000000 0.000000 0.000000
vn 0.000000 0.000000 0.000000
vn 0.000000 0.000000 0.000000
vn 0.000000 0.000000 0.000000
vn 0.000000 0.000000 0.000000
vn 0.000000 0.000000 0.000000
vn 0.000000 0.000000 0.000000
vn 0.000000 0.000000 0.000000
vn 0.000000 0.000000 0.000000
vn 0.000000 0.000000 0.000000
vn 0.000000 0.000000 0.000000
vn 0.000000 0.000000 0.000000
vn 0.000000 0.000000 0.000000
vn 0.000000 0.000000 0.000000
vn 0.000000 0.000000 0.000000
vn 0.000000 0.000000 0.000000
vn 0.000000 0.000000 0.000000
vn 0.000000 0.000000 0.000000
vn 0.000000 0.000000 0.000000
vn 0.000000 0.000000 0.000000
vn 0.000000 0.000000 0.000000
vn 0.000000 0.000000 0.000000
vn 0.000000 0.000000 0.000000
vn 0.000000 0.000000 0.000000
vn 0.000000 0.000000 0.000000
vn 0.000000 0.000000 1.000000
vn 0.000000 0.000000 1.000000
vn 0.000000 0.000000 1.000000
vn 0.000000 0.000000 1.000000
s off
g Painting_on_common_room
usemtl initialShadingGroup
f 42/97/1 41/98/2 43/99/3 44/100/4
f 41/98/5 45/101/6 46/102/7 43/99/8
f 47/103/9 42/97/10 44/100/11 48/104/12
f 45/101/13 47/103/14 48/104/15 46/102/16
f 2/33/17 1/34/18 9/35/19 10/36/20
f 5/37/21 6/38/22 12/39/23 11/40/24
f 1/65/25 3/66/26 13/67/27 9/68/28
f 7/69/29 5/70/30 11/71/31 14/72/32
f 4/73/33 2/74/34 10/75/35 15/76/36
f 6/77/37 8/78/38 16/79/39 12/80/40
f 3/41/41 4/42/42 15/43/43 13/44/44
f 8/45/45 7/46/46 14/47/47 16/48/48
s 1
f 10/105/49 9/106/50 17/107/51 18/108/52
s 2
f 11/113/53 12/114/54 20/115/55 19/116/56
s 1
f 9/106/50 13/109/57 21/110/58 17/107/51
s 2
f 14/119/59 11/113/53 19/116/56 22/120/60
s 1
f 15/111/61 10/105/49 18/108/52 23/112/62
s 2
f 12/114/54 16/117/63 24/118/64 20/115/55
s 1
f 13/109/57 15/111/61 23/112/62 21/110/58
s 2
f 16/117/63 14/119/59 22/120/60 24/118/64
s off
f 18/49/65 17/50/66 25/51/67 26/52/68
f 19/53/69 20/54/70 28/55/71 27/56/72
f 17/81/73 21/82/74 29/83/75 25/84/76
f 22/85/77 19/86/78 27/87/79 30/88/80
f 23/89/81 18/90/82 26/91/83 31/92/84
f 20/93/85 24/94/86 32/95/87 28/96/88
f 21/57/89 23/58/90 31/59/91 29/60/92
f 24/61/93 22/62/94 30/63/95 32/64/96
s 3
f 26/121/97 25/122/98 33/123/99 34/124/100
s 4
f 27/129/101 28/130/102 36/131/103 35/132/104
s 3
f 25/122/98 29/125/105 37/126/106 33/123/99
s 4
f 30/135/107 27/129/101 35/132/104 38/136/108
s 3
f 31/127/109 26/121/97 34/124/100 39/128/110
s 4
f 28/130/102 32/133/111 40/134/112 36/131/103
s 3
f 29/125/105 31/127/109 39/128/110 37/126/106
s 4
f 32/133/111 30/135/107 38/136/108 40/134/112
s off
f 34/1/113 33/2/114 41/18/115 42/17/116
f 35/3/117 36/4/118 44/20/119 43/19/120
f 33/5/121 37/6/122 45/22/123 41/21/124
f 38/7/125 35/8/126 43/24/127 46/23/128
f 39/9/129 34/10/130 42/26/131 47/25/132
f 36/11/133 40/12/134 48/28/135 44/27/136
f 37/13/137 39/14/138 47/30/139 45/29/140
f 40/15/141 38/16/142 46/32/143 48/31/144
f 49/137/145 50/138/146 52/139/147 51/140/148
