# This file uses centimeters as units for non-parametric coordinates.

mtllib Rails.mtl
g default
v 79.904327 30.967667 -23.861181
v 79.869720 30.884129 -23.861181
v 79.904320 30.800591 -23.861181
v 79.987862 30.765987 -23.861179
v 80.071396 30.800591 -23.861181
v 80.106003 30.884129 -23.861179
v 80.071396 30.967667 -23.861181
v 79.987862 31.002266 -23.861179
v 79.904320 30.967667 -10.084060
v 79.869720 30.884129 -10.084059
v 79.904320 30.800591 -10.084060
v 79.987862 30.765987 -10.084060
v 80.071396 30.800591 -10.084060
v 80.106003 30.884129 -10.084060
v 80.071396 30.967667 -10.084060
v 79.987862 31.002266 -10.084060
v 79.904320 23.126814 -23.861181
v 79.869713 23.043270 -23.861181
v 79.904320 22.959726 -23.861181
v 79.987862 22.925119 -23.861179
v 80.071404 22.959726 -23.861179
v 80.106010 23.043270 -23.861181
v 80.071404 23.126814 -23.861179
v 79.987862 23.161419 -23.861179
v 79.904320 23.126814 -10.084060
v 79.869705 23.043270 -10.084059
v 79.904320 22.959726 -10.084060
v 79.987862 22.925121 -10.084060
v 80.071404 22.959726 -10.084060
v 80.106010 23.043270 -10.084059
v 80.071404 23.126814 -10.084059
v 79.987862 23.161419 -10.084060
vt 0.511799 0.943440
vt 0.506346 0.943380
vt 0.515469 0.112426
vt 0.520923 0.112486
vt 0.500892 0.943320
vt 0.510016 0.112366
vt 0.495438 0.943260
vt 0.504562 0.112307
vt 0.489985 0.943201
vt 0.499108 0.112247
vt 0.484531 0.943141
vt 0.493655 0.112187
vt 0.479077 0.943081
vt 0.488201 0.112127
vt 0.473624 0.943021
vt 0.526377 0.112546
vt 0.511800 0.943439
vt 0.506346 0.943379
vt 0.515470 0.112428
vt 0.520924 0.112488
vt 0.500892 0.943319
vt 0.510016 0.112368
vt 0.495438 0.943259
vt 0.504562 0.112308
vt 0.489984 0.943199
vt 0.499108 0.112248
vt 0.484530 0.943139
vt 0.493654 0.112188
vt 0.479076 0.943079
vt 0.488200 0.112128
vt 0.473622 0.943019
vt 0.526378 0.112548
vt 0.517254 0.943498
vt 0.482746 0.112068
vt 0.517253 0.943500
vt 0.482747 0.112067
vn -0.923822 0.382824 -0.000000
vn -0.923822 0.382824 -0.000000
vn -0.923822 0.382824 -0.000000
vn -0.923822 0.382824 -0.000000
vn -0.923856 -0.382740 0.000000
vn -0.923856 -0.382740 0.000000
vn -0.923856 -0.382740 0.000000
vn -0.923856 -0.382740 0.000000
vn -0.382698 -0.923873 0.000000
vn -0.382698 -0.923873 0.000000
vn -0.382698 -0.923873 0.000000
vn -0.382698 -0.923873 0.000000
vn 0.382698 -0.923873 0.000000
vn 0.382698 -0.923873 0.000000
vn 0.382698 -0.923873 0.000000
vn 0.382698 -0.923873 0.000000
vn 0.923856 -0.382740 0.000000
vn 0.923856 -0.382740 0.000000
vn 0.923856 -0.382740 0.000000
vn 0.923856 -0.382740 0.000000
vn 0.923856 0.382740 0.000000
vn 0.923856 0.382740 0.000000
vn 0.923856 0.382740 0.000000
vn 0.923856 0.382740 0.000000
vn 0.382662 0.923888 0.000000
vn 0.382662 0.923888 0.000000
vn 0.382662 0.923888 0.000000
vn 0.382662 0.923888 0.000000
vn -0.382697 0.923874 0.000000
vn -0.382697 0.923874 0.000000
vn -0.382697 0.923874 0.000000
vn -0.382697 0.923874 0.000000
vn -0.923831 0.382801 -0.000000
vn -0.923831 0.382801 -0.000000
vn -0.923831 0.382801 -0.000000
vn -0.923831 0.382801 -0.000000
vn -0.923831 -0.382801 -0.000000
vn -0.923831 -0.382801 -0.000000
vn -0.923831 -0.382801 -0.000000
vn -0.923831 -0.382801 -0.000000
vn -0.382725 -0.923862 0.000000
vn -0.382725 -0.923862 0.000000
vn -0.382725 -0.923862 0.000000
vn -0.382725 -0.923862 0.000000
vn 0.382691 -0.923877 0.000000
vn 0.382691 -0.923877 0.000000
vn 0.382691 -0.923877 0.000000
vn 0.382691 -0.923877 0.000000
vn 0.923865 -0.382718 0.000000
vn 0.923865 -0.382718 0.000000
vn 0.923865 -0.382718 0.000000
vn 0.923865 -0.382718 0.000000
vn 0.923865 0.382718 0.000000
vn 0.923865 0.382718 0.000000
vn 0.923865 0.382718 0.000000
vn 0.923865 0.382718 0.000000
vn 0.382682 0.923880 0.000000
vn 0.382682 0.923880 0.000000
vn 0.382682 0.923880 0.000000
vn 0.382682 0.923880 0.000000
vn -0.382716 0.923866 0.000000
vn -0.382716 0.923866 0.000000
vn -0.382716 0.923866 0.000000
vn -0.382716 0.923866 0.000000
s off
g rails
usemtl initialShadingGroup
f 1/1/1 2/2/2 10/3/3 9/4/4
f 2/2/5 3/5/6 11/6/7 10/3/8
f 3/5/9 4/7/10 12/8/11 11/6/12
f 4/7/13 5/9/14 13/10/15 12/8/16
f 5/9/17 6/11/18 14/12/19 13/10/20
f 6/11/21 7/13/22 15/14/23 14/12/24
f 7/13/25 8/15/26 16/36/27 15/14/28
f 8/35/29 1/1/30 9/4/31 16/16/32
f 17/17/33 18/18/34 26/19/35 25/20/36
f 18/18/37 19/21/38 27/22/39 26/19/40
f 19/21/41 20/23/42 28/24/43 27/22/44
f 20/23/45 21/25/46 29/26/47 28/24/48
f 21/25/49 22/27/50 30/28/51 29/26/52
f 22/27/53 23/29/54 31/30/55 30/28/56
f 23/29/57 24/31/58 32/34/59 31/30/60
f 24/33/61 17/17/62 25/20/63 32/32/64
