# This file uses centimeters as units for non-parametric coordinates.

mtllib Stove Hood.mtl
g default
v 88.828957 22.448700 -24.088051
v 88.828957 22.448700 -41.734318
v 88.828957 27.417313 -24.088051
v 88.828957 27.417313 -41.734318
v 84.487305 27.417313 -24.088049
v 84.487305 27.417313 -41.734322
v 78.407303 22.448700 -24.088051
v 78.407303 22.448700 -41.734318
v 79.001823 22.448700 -24.645111
v 79.001816 22.448700 -41.177258
v 88.828957 22.448700 -41.177258
v 88.828957 22.448700 -24.645111
v 78.407303 21.404167 -24.088051
v 78.407303 21.404167 -41.734318
v 79.001816 21.404167 -41.177258
v 79.001823 21.404167 -24.645111
v 88.828957 21.404167 -41.734318
v 88.828957 21.404167 -41.177258
v 88.828957 21.404167 -24.088051
v 88.828957 21.404167 -24.645111
vt 0.198437 0.001992
vt 0.198437 0.625799
vt 0.161512 0.625799
vt 0.161512 0.001992
vt 0.374081 0.001992
vt 0.374081 0.625799
vt 0.791673 0.001992
vt 0.791673 0.586414
vt 0.754748 0.586414
vt 0.754748 0.001992
vt 0.155375 0.001992
vt 0.155375 0.625799
vt 0.001895 0.625799
vt 0.001895 0.001992
vt 0.380268 0.625799
vt 0.380268 0.001992
vt 0.401285 0.021685
vt 0.401285 0.606107
vt 0.748680 0.001992
vt 0.748680 0.021685
vt 0.748680 0.625799
vt 0.748680 0.606107
vt 0.912390 0.629596
vt 0.912390 0.998008
vt 0.736746 0.783076
vt 0.736746 0.629596
vt 0.949315 0.629596
vt 0.949315 0.998008
vt 0.555267 0.998008
vt 0.555267 0.629596
vt 0.730910 0.629596
vt 0.730910 0.783076
vt 0.518341 0.998008
vt 0.518341 0.629596
vt 0.512506 0.629596
vt 0.512506 0.976992
vt 0.475581 0.976992
vt 0.475581 0.629596
vt 0.432820 0.976991
vt 0.432820 0.629596
vt 0.469745 0.629596
vt 0.469745 0.976991
vn 0.000000 1.000000 0.000000
vn 0.000000 1.000000 0.000000
vn 0.000000 1.000000 0.000000
vn 0.000000 1.000000 0.000000
vn -0.632785 0.774327 0.000000
vn -0.632785 0.774327 0.000000
vn -0.632785 0.774327 0.000000
vn -0.632785 0.774327 0.000000
vn 0.000000 -0.000000 -1.000000
vn 0.000000 -0.000000 -1.000000
vn 0.000000 -0.000001 -1.000000
vn 0.000000 -0.000001 -1.000000
vn 0.000000 -0.000000 1.000000
vn 0.000000 -0.000000 1.000000
vn 0.000000 -0.000000 1.000000
vn 0.000000 -0.000000 1.000000
vn 0.000000 -1.000000 0.000000
vn 0.000000 -1.000000 0.000000
vn 0.000000 -1.000000 0.000000
vn 0.000000 -1.000000 0.000000
vn 0.000000 -1.000000 0.000001
vn 0.000000 -1.000000 0.000001
vn 0.000000 -1.000000 0.000001
vn 0.000000 -1.000000 0.000001
vn 0.000000 -1.000000 0.000000
vn 0.000000 -1.000000 0.000000
vn 0.000000 -1.000000 0.000000
vn 0.000000 -1.000000 0.000000
vn -1.000000 0.000000 0.000000
vn -1.000000 0.000000 0.000000
vn -1.000000 0.000000 0.000000
vn -1.000000 0.000000 0.000000
vn 1.000000 0.000000 -0.000000
vn 1.000000 0.000000 -0.000000
vn 1.000000 0.000000 -0.000000
vn 1.000000 0.000000 -0.000000
vn 0.000000 0.000000 -1.000000
vn 0.000000 0.000000 -1.000000
vn 0.000000 0.000000 1.000000
vn 0.000000 0.000000 1.000000
vn 0.000000 0.000000 1.000000
vn 0.000000 0.000000 1.000000
vn 0.000000 0.000000 1.000000
vn 0.000000 0.000000 1.000000
vn 0.000000 0.000000 -1.000000
vn 0.000000 0.000000 -1.000000
vn 0.000000 0.000000 -1.000000
vn 0.000000 0.000000 -1.000000
s off
g stove_hood
usemtl initialShadingGroup
f 3/11/1 4/12/2 6/13/3 5/14/4
f 5/5/5 6/6/6 8/2/7 7/1/8
s 1
f 2/23/9 8/24/10 6/25/11 4/26/12
s 2
f 7/29/13 1/30/14 3/31/15 5/32/16
s off
f 13/15/17 14/16/18 15/17/19 16/18/20
f 14/16/21 17/19/22 18/20/23 15/17/24
f 19/21/25 13/15/26 16/18/27 20/22/28
f 7/1/29 8/2/30 14/3/31 13/4/32
f 10/7/33 9/8/34 16/9/35 15/10/36
s 1
f 8/24/10 2/23/9 17/27/37 14/28/38
s off
f 11/35/39 10/36/40 15/37/41 18/38/42
s 2
f 1/30/14 7/29/13 13/33/43 19/34/44
s off
f 9/39/45 12/40/46 20/41/47 16/42/48
